<svg width="150" height="150" viewBox="0 0 150 150" fill="none" xmlns="http://www.w3.org/2000/svg">
<path d="M149.376 138.149C152.994 130.99 142.654 95.1919 70.9613 95.1919C19.2137 95.1919 -4.53707 124.493 0.713754 139.342" fill="url(#paint0_radial_1_521)"/>
<mask id="mask0_1_521" style="mask-type:luminance" maskUnits="userSpaceOnUse" x="0" y="95" width="150" height="45">
<path d="M149.376 138.149C152.994 130.99 142.654 95.1919 70.9613 95.1919C19.2137 95.1919 -4.53707 124.493 0.713754 139.342" fill="white"/>
</mask>
<g mask="url(#mask0_1_521)">
<ellipse opacity="0.671968" cx="59.9071" cy="115.266" rx="3.94276" ry="2.19001" fill="url(#paint1_linear_1_521)"/>
<ellipse opacity="0.729957" cx="100.145" cy="111.924" rx="6.22079" ry="3.41641" fill="url(#paint2_linear_1_521)"/>
<ellipse opacity="0.729957" cx="29.3528" cy="102.813" rx="6.22079" ry="3.41641" fill="url(#paint3_linear_1_521)"/>
</g>
<g opacity="0.320685">
<ellipse cx="116.343" cy="35.4829" rx="4.20561" ry="4.20481" fill="url(#paint4_linear_1_521)"/>
<path d="M120.171 38.0483C118.973 37.993 117.406 37.6465 115.801 37.0622C114.195 36.4779 112.772 35.7362 111.818 35.0087C111.416 34.7014 111.122 34.4144 110.957 34.1811C111.005 34.1685 111.06 34.1565 111.121 34.1458C111.584 34.0645 112.258 34.0759 113.062 34.1892L113.356 32.107C111.026 31.7786 109.336 32.0757 108.849 33.414C108.141 35.3605 111.026 37.5624 115.082 39.0382C119.137 40.514 122.763 40.6816 123.471 38.7352C123.968 37.3702 122.88 36.2918 120.569 34.8614L119.462 36.6494C120.248 37.1359 120.836 37.5658 121.193 37.9197C121.218 37.9444 121.241 37.9684 121.263 37.9914C120.992 38.0471 120.619 38.069 120.171 38.0483Z" fill="url(#paint5_linear_1_521)"/>
<path d="M120.556 35.4829C120.556 33.1606 118.674 31.2781 116.351 31.2781C114.028 31.2781 112.573 32.7628 112.273 34.4369C112.273 34.4369 114.691 35.9504 115.807 36.2757C116.163 36.3795 116.516 36.5141 116.875 36.6334C117.277 36.7668 117.687 36.8845 118.101 36.9867C118.384 37.0565 118.773 37.1646 119.136 37.232C119.614 37.321 120.043 37.3607 120.076 37.3607C120.136 37.3607 120.201 37.0963 120.335 36.7882C120.468 36.4801 120.556 35.4829 120.556 35.4829Z" fill="url(#paint6_linear_1_521)"/>
</g>
<circle opacity="0.418364" cx="23.9395" cy="60.2865" r="4.90385" fill="url(#paint7_linear_1_521)"/>
<ellipse opacity="0.425921" cx="77.0187" cy="102.114" rx="14.7115" ry="4.03846" fill="url(#paint8_linear_1_521)"/>
<path d="M66.8684 79.0389C66.8684 79.0389 66.4655 80.2054 66.4655 81.0255C66.0627 88.1661 67.0613 99.8081 67.0613 99.8081H68.6122L70.9014 82.2907L74.0044 99.8081H75.5301C75.5301 99.8081 75.7316 88.5629 75.1273 81.0255C75.1273 80.2139 74.7758 79.4357 74.7758 79.4357L66.8684 79.0389Z" fill="url(#paint9_linear_1_521)"/>
<path d="M65.5008 70.0006L62.4263 70.7281L61.3771 70.4493L54.712 69.4814L53.1026 69.4814L53.0963 67.3509L53.4933 68.1689L54.2077 68.3933C54.2077 68.3933 54.5928 67.6155 54.712 67.7482C54.8312 67.8809 54.8829 68.4274 54.8829 68.4274L55.4784 68.7356L62.5742 68.7356L64.2508 67.7506L65.5008 70.0006Z" fill="#FDE7E6"/>
<path d="M75.5033 70.0006L78.6697 70.7281L79.7189 70.4493L86.384 69.4814L88.2076 68.5517L88.8272 67.3142L88.5953 67.2813L87.6027 68.1689L86.8883 68.3933C86.8883 68.3933 86.5032 67.6155 86.384 67.7482C86.2648 67.8809 86.2131 68.4274 86.2131 68.4274L85.6176 68.7356L78.5219 68.7356L76.7533 67.7506L75.5033 70.0006Z" fill="#FDE7E6"/>
<path d="M77.3088 67.879L76.3332 70.2546H73.9476L75.0011 80.1221C75.0011 80.1221 71.9928 80.6276 70.4021 80.7502C68.8114 80.8728 66.548 80.1221 66.548 80.1221C66.548 80.1221 66.548 76.6814 66.548 70.5061C66.548 70.5061 64.4299 70.2546 64.4299 70.2546L64.0396 67.879C64.0396 67.879 66.0179 66.4902 66.548 66.2594C67.0782 66.0285 68.8699 65.7674 68.8699 65.7674L71.7044 65.7674C71.7044 65.7674 73.9561 65.8545 74.3818 66.2594C74.8075 66.6643 77.3088 67.879 77.3088 67.879Z" fill="url(#paint10_linear_1_521)"/>
<path fill-rule="evenodd" clip-rule="evenodd" d="M71.5138 64.0378H69.7386V66.3916H69.7385C69.7385 66.3916 69.7386 66.3917 69.7386 66.3918V66.3936H69.7399C69.7742 66.4428 70.4486 67.4139 70.4486 67.7398C70.4486 68.0677 71.472 66.4573 71.5124 66.3936H71.5138V64.0378Z" fill="#FECECD"/>
<ellipse cx="70.545" cy="63.3189" rx="1.8684" ry="2.64812" fill="#FFE9E9"/>
<path fill-rule="evenodd" clip-rule="evenodd" d="M68.4905 63.4919C68.6399 62.9926 68.6399 61.8914 68.9389 61.8555C69.2378 61.8196 69.8357 62.0281 70.4336 61.6236C70.7325 61.4016 70.882 61.3737 70.882 61.2622C72.3767 61.5279 71.4828 62.3298 72.2273 63.2132C72.3049 63.3053 72.5262 63.2132 72.5262 63.2132C72.5262 63.2132 72.5262 61.0382 72.3767 60.8441C72.2273 60.6501 71.6294 59.8686 71.3304 60.4261C71.3304 60.1474 70.7325 59.8598 70.1347 60.0733C69.5368 60.2867 68.6399 60.7048 68.4905 61.2622C68.341 61.8196 68.1915 62.9345 68.4905 63.4919Z" fill="#513450"/>
<path d="M67.1803 99.8073L66.7653 100.514C66.4932 100.977 66.3497 101.504 66.3497 102.041V102.041C66.3497 102.082 66.3827 102.115 66.4233 102.115H68.3521C68.5207 102.115 68.6574 101.978 68.6574 101.81V101.81C68.6574 101.249 68.5544 100.693 68.3534 100.169L68.2146 99.8073H67.1803Z" fill="#677285"/>
<path d="M75.3252 99.8073L75.7402 100.514C76.0123 100.977 76.1558 101.504 76.1558 102.041V102.041C76.1558 102.082 76.1228 102.115 76.0822 102.115H74.1534C73.9848 102.115 73.8481 101.978 73.8481 101.81V101.81C73.8481 101.249 73.9511 100.693 74.1521 100.169L74.2908 99.8073H75.3252Z" fill="#677285"/>
<path d="M53.1035 13.1446H54.8343V101.125C54.8343 101.603 54.4468 101.991 53.9689 101.991V101.991C53.491 101.991 53.1035 101.603 53.1035 101.125V13.1446Z" fill="#D8D8D8"/>
<path d="M53.0784 13.1983L63.698 15.7242C67.6099 16.6546 71.7313 15.988 75.1504 13.8716V13.8716C79.9744 10.8858 85.8747 10.1948 91.258 11.9852L94.9053 13.1983L92.0207 34.7825L91.2086 34.4512C85.985 32.3198 80.0202 33.1473 75.574 36.62V36.62C72.0158 39.3992 67.2307 40.0312 63.0729 38.2712L53.0784 34.0404V13.1983Z" fill="#1A97D4"/>
<path d="M52.7311 67.8231C52.7311 67.8231 53.5965 67.3905 53.5965 67.5347C53.5965 67.6789 53.5965 69.2655 53.5965 69.2655L53.0195 69.5539L52.7311 67.8231Z" fill="#FFE9E9"/>
<defs>
<radialGradient id="paint0_radial_1_521" cx="0" cy="0" r="1" gradientUnits="userSpaceOnUse" gradientTransform="translate(65.0555 110.503) rotate(-90) scale(25.6702 268.099)">
<stop stop-color="#EBEDF0" stop-opacity="0.24"/>
<stop offset="0.536775" stop-color="#EBEDF0" stop-opacity="0.845525"/>
<stop offset="1" stop-color="#E0E4E7" stop-opacity="0.01"/>
</radialGradient>
<linearGradient id="paint1_linear_1_521" x1="56.7335" y1="114.685" x2="57.9347" y2="117.254" gradientUnits="userSpaceOnUse">
<stop stop-color="#E1E7EA"/>
<stop offset="1" stop-color="#D0D6DC"/>
</linearGradient>
<linearGradient id="paint2_linear_1_521" x1="94.9221" y1="111.604" x2="97.12" y2="116.189" gradientUnits="userSpaceOnUse">
<stop stop-color="#E1E7EA"/>
<stop offset="1" stop-color="#D0D6DC"/>
</linearGradient>
<linearGradient id="paint3_linear_1_521" x1="25.3862" y1="102.869" x2="26.6299" y2="107.823" gradientUnits="userSpaceOnUse">
<stop stop-color="#FBFBFB"/>
<stop offset="1" stop-color="#D9DFE3"/>
</linearGradient>
<linearGradient id="paint4_linear_1_521" x1="110.598" y1="32.5875" x2="112.7" y2="39.8575" gradientUnits="userSpaceOnUse">
<stop stop-color="#ECECEC"/>
<stop offset="0.717538" stop-color="#E1E7EA"/>
<stop offset="1" stop-color="#BCC3CA"/>
</linearGradient>
<linearGradient id="paint5_linear_1_521" x1="112.381" y1="37.126" x2="122.691" y2="40.8786" gradientUnits="userSpaceOnUse">
<stop stop-color="#BAC6D2"/>
<stop offset="1" stop-color="#7F8F9F"/>
</linearGradient>
<linearGradient id="paint6_linear_1_521" x1="114.795" y1="35.121" x2="116.171" y2="37.8992" gradientUnits="userSpaceOnUse">
<stop stop-color="#E1E7EA"/>
<stop offset="1" stop-color="#D0D6DC"/>
</linearGradient>
<linearGradient id="paint7_linear_1_521" x1="30.3864" y1="61.7421" x2="25.4897" y2="53.4724" gradientUnits="userSpaceOnUse">
<stop stop-color="#DAE2E6"/>
<stop offset="0.58" stop-color="#E3EBEF"/>
<stop offset="1" stop-color="#EDF6F9"/>
</linearGradient>
<linearGradient id="paint8_linear_1_521" x1="65.976" y1="102.592" x2="74.2392" y2="115.447" gradientUnits="userSpaceOnUse">
<stop stop-color="#C4CDD1"/>
<stop offset="1" stop-color="#C6CFD3" stop-opacity="0.01"/>
</linearGradient>
<linearGradient id="paint9_linear_1_521" x1="75.5459" y1="99.8081" x2="75.5459" y2="79.1946" gradientUnits="userSpaceOnUse">
<stop stop-color="#A1A7B8"/>
<stop offset="1" stop-color="#7B8195"/>
</linearGradient>
<linearGradient id="paint10_linear_1_521" x1="84.0215" y1="72.6163" x2="71.2516" y2="87.2222" gradientUnits="userSpaceOnUse">
<stop stop-color="#E5E9F0"/>
<stop offset="1" stop-color="#D2DAE8"/>
</linearGradient>
</defs>
</svg>
