<svg width="15" height="16" viewBox="0 0 15 16" fill="none" xmlns="http://www.w3.org/2000/svg">
<path d="M1.16567 5.9C0.952393 5.9 0.800049 6.08281 0.800049 6.26562V14.1875C0.800049 15.0102 1.43989 15.65 2.26255 15.65H12.9876C13.7797 15.65 14.4501 15.0102 14.4501 14.1875V6.26562C14.4501 6.08281 14.2672 5.9 14.0844 5.9H1.16567ZM14.4501 4.55937V3.4625C14.4501 2.67031 13.7797 2 12.9876 2H11.5251V0.415624C11.5251 0.232812 11.3422 0.0499992 11.1594 0.0499992H9.94068C9.72739 0.0499992 9.57505 0.232812 9.57505 0.415624V2H5.67505V0.415624C5.67505 0.232812 5.49224 0.0499992 5.30942 0.0499992H4.09067C3.87739 0.0499992 3.72505 0.232812 3.72505 0.415624V2H2.26255C1.43989 2 0.800049 2.67031 0.800049 3.4625V4.55937C0.800049 4.77266 0.952393 4.925 1.16567 4.925H14.0844C14.2672 4.925 14.4501 4.77266 14.4501 4.55937Z" fill="#1A97D4"/>
</svg>
