<svg width="24" height="25" viewBox="0 0 24 25" fill="none" xmlns="http://www.w3.org/2000/svg">
<path d="M20.9 12.2504C21.3844 12.5807 21.8163 12.9553 22.1957 13.3743C22.5751 13.7932 22.9021 14.2524 23.1766 14.752C23.451 15.2515 23.6529 15.7792 23.782 16.3351C23.9112 16.891 23.9839 17.459 24 18.0391C24 18.9978 23.8184 19.9001 23.4551 20.7461C23.0918 21.592 22.5913 22.3292 21.9535 22.9576C21.3158 23.5861 20.5771 24.0815 19.7375 24.4441C18.8979 24.8066 17.9937 24.9919 17.025 25C16.2904 25 15.5799 24.8912 14.8938 24.6737C14.2076 24.4562 13.5779 24.142 13.0047 23.7311C12.4315 23.3202 11.9229 22.8287 11.4789 22.2567C11.0349 21.6847 10.6918 21.0522 10.4496 20.3594H0.75V1.79687H3.85V0.25H5.4V1.79687H16.25V0.25H17.8V1.79687H20.9V12.2504ZM2.3 3.34375V6.4375H19.35V3.34375H17.8V4.89062H16.25V3.34375H5.4V4.89062H3.85V3.34375H2.3ZM10.0863 18.8125C10.0621 18.5627 10.05 18.3049 10.05 18.0391C10.05 17.3462 10.1469 16.6735 10.3406 16.0209C10.5344 15.3683 10.829 14.752 11.2246 14.1719H10.05V12.625H11.6V13.6643C11.931 13.2534 12.2983 12.8909 12.702 12.5767C13.1056 12.2625 13.5415 11.9926 14.0098 11.767C14.478 11.5414 14.9664 11.3722 15.475 11.2594C15.9836 11.1466 16.5003 11.0862 17.025 11.0781C17.8323 11.0781 18.6073 11.2111 19.35 11.4769V7.98438H2.3V18.8125H10.0863ZM17.025 23.4531C17.7758 23.4531 18.4781 23.3121 19.132 23.0301C19.7859 22.7482 20.3591 22.3615 20.8516 21.87C21.344 21.3785 21.7315 20.8065 22.0141 20.1539C22.2966 19.5013 22.4419 18.7964 22.45 18.0391C22.45 17.2898 22.3087 16.5889 22.0262 15.9363C21.7436 15.2837 21.3561 14.7117 20.8637 14.2202C20.3712 13.7288 19.798 13.342 19.1441 13.0601C18.4902 12.7781 17.7839 12.6331 17.025 12.625C16.2742 12.625 15.5719 12.766 14.918 13.048C14.2641 13.33 13.6909 13.7167 13.1984 14.2081C12.706 14.6996 12.3185 15.2716 12.0359 15.9242C11.7534 16.5768 11.6081 17.2817 11.6 18.0391C11.6 18.7883 11.7413 19.4893 12.0238 20.1418C12.3064 20.7944 12.6939 21.3665 13.1863 21.8579C13.6788 22.3494 14.252 22.7361 14.9059 23.0181C15.5598 23.3 16.2661 23.4451 17.025 23.4531ZM17.8 17.2656H20.125V18.8125H16.25V14.1719H17.8V17.2656ZM3.85 12.625H5.4V14.1719H3.85V12.625ZM6.95 12.625H8.5V14.1719H6.95V12.625ZM6.95 9.53125H8.5V11.0781H6.95V9.53125ZM6.95 15.7188H8.5V17.2656H6.95V15.7188ZM11.6 11.0781H10.05V9.53125H11.6V11.0781ZM14.7 11.0781H13.15V9.53125H14.7V11.0781ZM3.85 9.53125H5.4V11.0781H3.85V9.53125Z" fill="#1A97D4"/>
</svg>
