<svg width="17" height="17" viewBox="0 0 17 17" fill="none" xmlns="http://www.w3.org/2000/svg">
<path d="M11.7296 3.50652L13.4946 5.27069M12.8646 1.95236L8.09214 6.72486C7.84554 6.9711 7.67737 7.28484 7.6088 7.62652L7.16797 9.83319L9.37464 9.39152C9.7163 9.32319 10.0296 9.15569 10.2763 8.90902L15.0488 4.13652C15.1922 3.99311 15.306 3.82285 15.3836 3.63547C15.4612 3.44809 15.5012 3.24726 15.5012 3.04444C15.5012 2.84162 15.4612 2.64079 15.3836 2.45341C15.306 2.26603 15.1922 2.09577 15.0488 1.95236C14.9054 1.80894 14.7351 1.69518 14.5478 1.61756C14.3604 1.53995 14.1595 1.5 13.9567 1.5C13.7539 1.5 13.5531 1.53995 13.3657 1.61756C13.1783 1.69518 13.0081 1.80894 12.8646 1.95236Z" stroke="white" stroke-width="1.5" stroke-linecap="round" stroke-linejoin="round"/>
<path d="M13.834 11.5003V14.0003C13.834 14.4424 13.6584 14.8663 13.3458 15.1788C13.0333 15.4914 12.6093 15.667 12.1673 15.667H3.00065C2.55862 15.667 2.1347 15.4914 1.82214 15.1788C1.50958 14.8663 1.33398 14.4424 1.33398 14.0003V4.83366C1.33398 4.39163 1.50958 3.96771 1.82214 3.65515C2.1347 3.34259 2.55862 3.16699 3.00065 3.16699H5.50065" stroke="white" stroke-width="1.5" stroke-linecap="round" stroke-linejoin="round"/>
</svg>
