<svg width="16" height="14" viewBox="0 0 16 14" fill="none" xmlns="http://www.w3.org/2000/svg">
<path d="M12.5322 5.33301H9.53738L6.80301 0.567383C6.72488 0.437174 6.59468 0.333008 6.43843 0.333008H4.74572C4.45926 0.333008 4.25093 0.619466 4.32905 0.879883L5.60509 5.33301H2.94884L1.80301 3.84863C1.72489 3.74447 1.62072 3.66634 1.49051 3.66634H0.448844C0.162385 3.66634 -0.0459479 3.92676 0.0321771 4.18717L0.86551 6.99967L0.0321771 9.83821C-0.0459479 10.0986 0.162385 10.333 0.448844 10.333H1.49051C1.62072 10.333 1.72489 10.2809 1.80301 10.1768L2.94884 8.66634H5.60509L4.32905 13.1455C4.25093 13.4059 4.45926 13.6663 4.74572 13.6663H6.43843C6.59468 13.6663 6.72488 13.5882 6.80301 13.458L9.53738 8.66634H12.5322C13.4436 8.66634 15.0322 7.93717 15.0322 6.99967C15.0322 6.08822 13.4436 5.33301 12.5322 5.33301Z" fill="#1A97D4"/>
</svg>
