<svg width="430" height="188" viewBox="0 0 430 188" fill="none" xmlns="http://www.w3.org/2000/svg">
<g opacity="0.2" clip-path="url(#clip0_0_1)">
<path d="M379.439 28.089C382.436 28.089 384.879 25.6535 384.879 22.6494C384.879 19.6453 382.436 17.2098 379.439 17.2098C376.443 17.2098 374 19.653 374 22.6494C374 25.6458 376.443 28.089 379.439 28.089ZM379.439 18.7771C381.575 18.7771 383.304 20.5135 383.304 22.6494C383.304 24.7853 381.567 26.5217 379.439 26.5217C377.311 26.5217 375.575 24.7853 375.575 22.6494C375.575 20.5135 377.303 18.7848 379.439 18.7848V18.7771Z" fill="white"/>
</g>
<g opacity="0.2" clip-path="url(#clip1_0_1)">
<path d="M426.182 92.7925L420.48 100.358C419.935 101.083 418.825 100.926 418.49 100.085L414.917 91.2561C414.572 90.4126 415.256 89.5042 416.143 89.6318L425.412 90.8836C426.299 91.0111 426.727 92.0672 426.182 92.7925Z" fill="white"/>
</g>
<g opacity="0.2" clip-path="url(#clip2_0_1)">
<path d="M277.287 121.152C279.25 118.888 279.009 115.446 276.739 113.479C274.469 111.511 271.029 111.762 269.066 114.026C267.104 116.291 267.35 119.737 269.614 121.7C271.878 123.662 275.324 123.416 277.287 121.152ZM270.25 115.053C271.649 113.439 274.094 113.27 275.708 114.669C277.322 116.068 277.497 118.517 276.103 120.125C274.709 121.734 272.259 121.908 270.645 120.509C269.031 119.11 268.857 116.672 270.256 115.058L270.25 115.053Z" fill="white"/>
</g>
<g opacity="0.2" clip-path="url(#clip3_0_1)">
<path d="M417.439 163C420.436 163 422.879 160.565 422.879 157.561C422.879 154.556 420.436 152.121 417.439 152.121C414.443 152.121 412 154.564 412 157.561C412 160.557 414.443 163 417.439 163ZM417.439 153.688C419.575 153.688 421.304 155.425 421.304 157.561C421.304 159.696 419.567 161.433 417.439 161.433C415.311 161.433 413.575 159.696 413.575 157.561C413.575 155.425 415.303 153.696 417.439 153.696V153.688Z" fill="white"/>
</g>
<g opacity="0.2" clip-path="url(#clip4_0_1)">
<path d="M198.537 23.9224L194.987 32.7062C194.648 33.5478 193.536 33.6832 192.994 32.9577L187.257 25.3541C186.706 24.6286 187.132 23.5742 188.022 23.4677L197.299 22.2779C198.189 22.1715 198.876 23.0808 198.537 23.9224Z" fill="white"/>
</g>
<g opacity="0.2" clip-path="url(#clip5_0_1)">
<path d="M15.2872 129.337L19.5993 137.773C20.0135 138.58 19.3872 139.51 18.4842 139.444L8.98126 138.799C8.07186 138.74 7.55386 137.728 8.05637 136.986L13.2335 129.196C13.736 128.454 14.873 128.53 15.2872 129.337Z" fill="white"/>
</g>
<g opacity="0.2">
<g clip-path="url(#clip6_0_1)">
<path d="M361.759 61.194C360.618 60.5499 359.936 59.6271 359.766 58.3039C359.681 57.6598 359.544 56.9982 359.408 56.354C359.135 54.9786 358.863 53.6032 358.556 52.2452C358.351 51.3573 357.84 50.6434 357.227 49.9993C356.375 49.0939 355.421 48.3453 354.347 47.7359C350.257 45.403 346.168 43.07 342.078 40.737C341.448 40.3888 340.817 40.0406 340.153 39.6924C339.812 48.7109 339.471 57.7468 339.113 66.8001C338.057 66.2082 337.273 65.3899 336.642 64.3975C335.893 63.231 335.433 61.9427 335.211 60.5499C334.904 58.7566 334.563 56.9808 334.24 55.1875C334.189 54.8915 334.12 54.613 334.086 54.317C334.069 54.1081 333.967 53.9862 333.78 53.8818C333.132 53.5335 332.502 53.1679 331.871 52.8023C331.394 52.5238 331.292 52.0537 331.564 51.514C331.769 51.0961 332.263 50.9568 332.706 51.1832C332.979 51.3224 333.234 51.4965 333.575 51.6881C333.473 51.1309 333.405 50.6434 333.32 50.156C333.081 48.8502 332.859 47.5444 332.621 46.2387C332.587 46.0994 332.485 45.9427 332.365 45.873C331.82 45.5074 331.258 45.1418 330.712 44.7936C330.303 44.5325 330.184 44.0798 330.406 43.6097C330.627 43.1571 331.036 42.9829 331.496 43.1745C331.718 43.2615 331.922 43.4008 332.195 43.5401C332.059 42.7566 331.922 42.0254 331.786 41.3116C331.36 39.0308 330.934 36.7501 330.525 34.4519C330.491 34.243 330.372 34.1734 330.218 34.0863C327.662 32.6413 325.089 31.1962 322.55 29.7338C321.255 29.0025 320.062 28.132 319.108 26.9655C318.546 26.2691 318.103 25.5031 318.035 24.5629C317.983 24.0406 318.069 23.9187 318.529 23.675C319.551 23.1527 320.625 23.2049 321.715 23.4313C323.3 23.7446 324.731 24.4411 326.129 25.2419C328.429 26.5477 330.729 27.8361 333.03 29.1418C333.132 29.194 333.285 29.2115 333.388 29.1766C335.126 28.4976 336.881 27.8012 338.619 27.1048C339.539 26.7392 340.476 26.3736 341.397 25.9906C341.533 25.9383 341.669 25.8687 341.84 25.7294C341.652 25.6424 341.465 25.5553 341.277 25.4683C340.868 25.2419 340.715 24.8067 340.902 24.354C341.09 23.8839 341.465 23.675 341.925 23.7969C342.061 23.8317 342.197 23.9013 342.334 23.9884C342.845 24.267 343.356 24.5803 343.884 24.8589C343.987 24.9111 344.14 24.946 344.242 24.9111C345.895 24.2844 347.531 23.6402 349.167 22.996C349.201 22.996 349.235 22.9612 349.32 22.909C349.03 22.7523 348.758 22.613 348.502 22.4563C348.025 22.1777 347.906 21.7076 348.196 21.1853C348.417 20.7501 348.894 20.6108 349.354 20.8545C350.002 21.2028 350.632 21.5684 351.263 21.934C351.45 22.0384 351.586 22.0384 351.791 21.9688C353.904 21.1157 356.017 20.2278 358.147 19.4269C360.26 18.6435 362.407 18.5564 364.503 19.5488C364.571 19.5836 364.622 19.6184 364.69 19.6532C364.707 19.6532 364.741 19.6881 364.793 19.7403C357.465 24.8241 350.172 29.9079 342.828 35.0265C342.964 35.0961 343.049 35.1658 343.152 35.218C347.446 37.638 351.74 40.058 356.017 42.4955C357.176 43.1571 358.334 43.7838 359.629 44.1494C360.567 44.4106 361.538 44.6195 362.509 44.3932C363.157 44.2365 363.77 43.9753 364.401 43.749C365.662 43.2789 366.923 42.8088 368.184 42.3388C368.678 42.1647 369.172 41.9557 369.683 41.8513C370.45 41.6946 371.421 41.9209 372.052 42.3388C371.404 43.07 370.757 43.8012 370.126 44.5325C368.422 46.465 366.718 48.3975 365.031 50.3301C364.895 50.4868 364.793 50.6783 364.741 50.8698C363.787 54.23 362.85 57.5901 361.913 60.9329C361.896 61.0025 361.862 61.0896 361.828 61.194H361.759Z" fill="white"/>
</g>
<g clip-path="url(#clip7_0_1)">
<path d="M729.429 -8.65981C729.429 -8.65981 692.829 -94.2298 622.749 -47.5898C552.659 -0.959812 488.899 134.7 375.279 58.5702" stroke="white" stroke-width="2" stroke-miterlimit="10" stroke-dasharray="13 2"/>
</g>
</g>
<g opacity="0.2">
<g clip-path="url(#clip8_0_1)">
<path d="M18.6729 19.1706C19.3005 18.7998 19.9343 18.7279 20.6187 19.0136C20.9525 19.1517 21.3089 19.2699 21.6569 19.3833C22.3949 19.6343 23.1329 19.8853 23.872 20.115C24.3563 20.2633 24.8421 20.2155 25.3228 20.0991C25.9956 19.9403 26.6214 19.6888 27.2133 19.3411C29.4737 18.0198 31.7341 16.6985 33.9946 15.3771C34.3375 15.1703 34.6805 14.9634 35.0329 14.7401C30.7859 12.0692 26.5305 9.39345 22.2715 6.70468C22.8502 6.36035 23.4622 6.21026 24.1153 6.18242C24.8853 6.14552 25.6335 6.28203 26.3657 6.56247C27.3143 6.91318 28.264 7.24264 29.2174 7.58514C29.3741 7.64278 29.5272 7.68738 29.6791 7.75323C29.7844 7.8031 29.8715 7.78773 29.974 7.72648C30.3217 7.51138 30.673 7.30933 31.0244 7.10728C31.2911 6.9549 31.5459 7.03632 31.7299 7.31765C31.8742 7.53229 31.8038 7.80902 31.5717 7.9595C31.4288 8.0521 31.2739 8.12682 31.0869 8.23774C31.3836 8.34335 31.6372 8.44602 31.8956 8.54048C32.5906 8.78852 33.2808 9.04477 33.9758 9.29281C34.0523 9.31511 34.1562 9.30942 34.2229 9.27132C34.5506 9.11031 34.883 8.94109 35.2022 8.77524C35.4417 8.65085 35.6928 8.71922 35.8575 8.95657C36.0138 9.18909 35.9839 9.43446 35.7638 9.60283C35.6603 9.68533 35.5363 9.7451 35.3935 9.83771C35.8086 9.98982 36.1985 10.1274 36.5801 10.2602C37.7965 10.6889 39.013 11.1177 40.2332 11.5595C40.3432 11.6011 40.4099 11.563 40.4945 11.5134C41.901 10.6839 43.3122 9.84624 44.7223 9.02983C45.4345 8.60932 46.1852 8.27676 47.0122 8.14137C47.5038 8.0641 47.9958 8.06363 48.4674 8.29212C48.7331 8.41268 48.7681 8.48759 48.7575 8.77694C48.7246 9.41456 48.4009 9.91711 47.9887 10.3795C47.3971 11.0557 46.6638 11.5515 45.8897 12.0019C44.6214 12.747 43.3614 13.4969 42.0931 14.2419C42.0395 14.2767 41.9884 14.3457 41.9768 14.4046C41.8203 15.4305 41.6675 16.4694 41.5195 17.5002C41.4396 18.045 41.355 18.598 41.2835 19.1477C41.2708 19.2279 41.2664 19.3129 41.2861 19.4337C41.3801 19.3676 41.4741 19.3015 41.5682 19.2354C41.7908 19.1014 42.043 19.1485 42.2088 19.3646C42.383 19.5855 42.3794 19.8241 42.1927 20.0119C42.1381 20.0679 42.0666 20.1142 41.9868 20.1556C41.7106 20.3244 41.4175 20.4835 41.1365 20.6605C41.0829 20.6953 41.0235 20.7594 41.0119 20.8184C40.854 21.7887 40.7092 22.7557 40.5644 23.7226C40.5549 23.7391 40.5622 23.7651 40.5637 23.8207C40.7197 23.7247 40.8625 23.6321 41.0091 23.5526C41.2758 23.4002 41.5353 23.4734 41.7062 23.7581C41.8542 23.9858 41.7885 24.2543 41.5433 24.4081C41.1956 24.6232 40.8442 24.8253 40.4929 25.0273C40.3905 25.0886 40.3525 25.1542 40.3292 25.2721C40.1523 26.5269 39.9922 27.7915 39.7855 29.04C39.5751 30.2755 39.0199 31.3338 37.9593 32.0675C37.9236 32.0906 37.8926 32.1056 37.8569 32.1287C37.8522 32.137 37.8259 32.1437 37.7866 32.1538C37.3766 27.2115 36.9573 22.2857 36.5353 17.3255C36.4639 17.3718 36.4067 17.3935 36.3531 17.4283C33.9939 18.8239 31.6347 20.2195 29.2719 21.6021C28.6311 21.9763 28.0072 22.3602 27.471 22.8823C27.0847 23.2611 26.714 23.6709 26.5528 24.2016C26.4482 24.557 26.4034 24.9251 26.337 25.2917C26.2126 26.0297 26.0883 26.7677 25.964 27.5057C25.9104 27.7921 25.8735 28.0882 25.7817 28.3635C25.6439 28.7764 25.2648 29.1813 24.8883 29.3688C24.7163 28.8537 24.5444 28.3385 24.3677 27.8316C23.9111 26.4737 23.4546 25.1158 22.9933 23.7661C22.9558 23.6569 22.892 23.5544 22.8141 23.4766C21.4617 22.083 20.1046 20.6976 18.756 19.3171C18.7272 19.2895 18.6947 19.2489 18.6539 19.2034L18.6729 19.1706Z" fill="white"/>
</g>
<g clip-path="url(#clip9_0_1)">
<path d="M-49.9398 215.677C-49.9398 215.677 1.43418 221.833 -1.53171 175.115C-4.49 128.395 -52.0704 59.9772 16.1768 26.4123" stroke="white" stroke-width="2" stroke-miterlimit="10" stroke-dasharray="13 2"/>
</g>
</g>
<defs>
<clipPath id="clip0_0_1">
<rect width="10.8792" height="10.8792" fill="white" transform="matrix(-1 0 0 1 384.879 17.2098)"/>
</clipPath>
<clipPath id="clip1_0_1">
<rect width="11.6085" height="11.1538" fill="white" transform="matrix(-0.965926 -0.258819 -0.258819 0.965926 426.691 91.2264)"/>
</clipPath>
<clipPath id="clip2_0_1">
<rect width="10.8792" height="10.8792" fill="white" transform="matrix(-0.654974 0.755651 0.755651 0.654974 272.629 109.916)"/>
</clipPath>
<clipPath id="clip3_0_1">
<rect width="10.8792" height="10.8792" fill="white" transform="matrix(-1 0 0 1 422.879 152.121)"/>
</clipPath>
<clipPath id="clip4_0_1">
<rect width="11.6085" height="11.1538" fill="white" transform="matrix(-1 0 0 1 198.625 22.2781)"/>
</clipPath>
<clipPath id="clip5_0_1">
<rect width="11.6085" height="11.1538" fill="white" transform="matrix(-0.654974 0.755651 0.755651 0.654974 14.1016 128.194)"/>
</clipPath>
<clipPath id="clip6_0_1">
<rect width="54" height="48" fill="white" transform="matrix(1 0 0 -1 318 66.8001)"/>
</clipPath>
<clipPath id="clip7_0_1">
<rect width="354.89" height="143.8" fill="white" transform="matrix(1 0 0 -1 375 81.8001)"/>
</clipPath>
<clipPath id="clip8_0_1">
<rect width="30.033" height="26.6837" fill="white" transform="matrix(-0.5 0.866025 0.866025 0.5 28.1426 -3.46439)"/>
</clipPath>
<clipPath id="clip9_0_1">
<rect width="197.378" height="79.9398" fill="white" transform="matrix(-0.5 0.866025 0.866025 0.5 5.07031 19.8208)"/>
</clipPath>
</defs>
</svg>
