<svg width="14" height="14" viewBox="0 0 14 14" fill="none" xmlns="http://www.w3.org/2000/svg">
<path d="M0 0.875C0 0.391016 0.391016 0 0.875 0H13.125C13.609 0 14 0.391016 14 0.875C14 1.35898 13.609 1.75 13.125 1.75V12.25C13.609 12.25 14 12.641 14 13.125C14 13.609 13.609 14 13.125 14H8.3125V12.6875C8.3125 11.9629 7.72461 11.375 7 11.375C6.27539 11.375 5.6875 11.9629 5.6875 12.6875V14H0.875C0.391016 14 0 13.609 0 13.125C0 12.641 0.391016 12.25 0.875 12.25V1.75C0.391016 1.75 0 1.35898 0 0.875ZM2.625 3.0625V3.9375C2.625 4.17812 2.82188 4.375 3.0625 4.375H3.9375C4.17812 4.375 4.375 4.17812 4.375 3.9375V3.0625C4.375 2.82188 4.17812 2.625 3.9375 2.625H3.0625C2.82188 2.625 2.625 2.82188 2.625 3.0625ZM6.5625 2.625C6.32188 2.625 6.125 2.82188 6.125 3.0625V3.9375C6.125 4.17812 6.32188 4.375 6.5625 4.375H7.4375C7.67812 4.375 7.875 4.17812 7.875 3.9375V3.0625C7.875 2.82188 7.67812 2.625 7.4375 2.625H6.5625ZM9.625 3.0625V3.9375C9.625 4.17812 9.82187 4.375 10.0625 4.375H10.9375C11.1781 4.375 11.375 4.17812 11.375 3.9375V3.0625C11.375 2.82188 11.1781 2.625 10.9375 2.625H10.0625C9.82187 2.625 9.625 2.82188 9.625 3.0625ZM3.0625 5.25C2.82188 5.25 2.625 5.44688 2.625 5.6875V6.5625C2.625 6.80312 2.82188 7 3.0625 7H3.9375C4.17812 7 4.375 6.80312 4.375 6.5625V5.6875C4.375 5.44688 4.17812 5.25 3.9375 5.25H3.0625ZM6.125 5.6875V6.5625C6.125 6.80312 6.32188 7 6.5625 7H7.4375C7.67812 7 7.875 6.80312 7.875 6.5625V5.6875C7.875 5.44688 7.67812 5.25 7.4375 5.25H6.5625C6.32188 5.25 6.125 5.44688 6.125 5.6875ZM10.0625 5.25C9.82187 5.25 9.625 5.44688 9.625 5.6875V6.5625C9.625 6.80312 9.82187 7 10.0625 7H10.9375C11.1781 7 11.375 6.80312 11.375 6.5625V5.6875C11.375 5.44688 11.1781 5.25 10.9375 5.25H10.0625ZM8.96875 10.5C9.33242 10.5 9.6332 10.202 9.54297 9.84922C9.25313 8.71445 8.225 7.875 7 7.875C5.775 7.875 4.74414 8.71445 4.45703 9.84922C4.3668 10.1992 4.67031 10.5 5.03125 10.5H8.96875Z" fill="#A1ADB2"/>
</svg>
