<svg width="430" height="1007" viewBox="0 0 430 1007" fill="none" xmlns="http://www.w3.org/2000/svg">
<g opacity="0.2">
<g clip-path="url(#clip0_0_1)">
<path d="M320.758 20.6061C319.617 21.2503 318.935 22.173 318.765 23.4962C318.68 24.1404 318.543 24.802 318.407 25.4461C318.134 26.8215 317.862 28.197 317.555 29.5549C317.35 30.4429 316.839 31.1567 316.226 31.8009C315.374 32.7062 314.42 33.4548 313.346 34.0642C309.256 36.3972 305.167 38.7301 301.077 41.0631C300.447 41.4113 299.816 41.7595 299.152 42.1077C298.811 33.0892 298.47 24.0533 298.112 15C297.056 15.5919 296.272 16.4102 295.641 17.4026C294.892 18.5691 294.432 19.8575 294.21 21.2503C293.903 23.0435 293.562 24.8194 293.239 26.6126C293.188 26.9086 293.119 27.1872 293.085 27.4831C293.068 27.6921 292.966 27.8139 292.779 27.9184C292.131 28.2666 291.501 28.6322 290.87 28.9978C290.393 29.2764 290.291 29.7465 290.563 30.2862C290.768 30.704 291.262 30.8433 291.705 30.617C291.978 30.4777 292.233 30.3036 292.574 30.1121C292.472 30.6692 292.404 31.1567 292.319 31.6442C292.08 32.9499 291.858 34.2557 291.62 35.5615C291.586 35.7008 291.484 35.8575 291.364 35.9271C290.819 36.2927 290.257 36.6583 289.711 37.0065C289.302 37.2677 289.183 37.7203 289.405 38.1904C289.626 38.6431 290.035 38.8172 290.495 38.6257C290.717 38.5386 290.921 38.3993 291.194 38.2601C291.058 39.0435 290.921 39.7748 290.785 40.4886C290.359 42.7693 289.933 45.0501 289.524 47.3482C289.49 47.5571 289.371 47.6268 289.217 47.7138C286.661 49.1589 284.088 50.6039 281.549 52.0664C280.254 52.7976 279.061 53.6681 278.107 54.8346C277.545 55.531 277.102 56.2971 277.034 57.2372C276.982 57.7595 277.068 57.8814 277.528 58.1251C278.55 58.6474 279.624 58.5952 280.714 58.3689C282.299 58.0555 283.73 57.3591 285.128 56.5582C287.428 55.2524 289.728 53.9641 292.029 52.6583C292.131 52.6061 292.284 52.5887 292.387 52.6235C294.125 53.3025 295.88 53.9989 297.618 54.6953C298.538 55.0609 299.475 55.4266 300.396 55.8096C300.532 55.8618 300.668 55.9314 300.839 56.0707C300.651 56.1578 300.464 56.2448 300.276 56.3319C299.867 56.5582 299.714 56.9935 299.901 57.4461C300.089 57.9162 300.464 58.1251 300.924 58.0033C301.06 57.9684 301.196 57.8988 301.333 57.8118C301.844 57.5332 302.355 57.2198 302.883 56.9412C302.986 56.889 303.139 56.8542 303.241 56.889C304.894 57.5158 306.53 58.16 308.166 58.8041C308.2 58.8041 308.234 58.839 308.319 58.8912C308.03 59.0479 307.757 59.1872 307.501 59.3438C307.024 59.6224 306.905 60.0925 307.195 60.6148C307.416 61.0501 307.893 61.1893 308.353 60.9456C309.001 60.5974 309.631 60.2318 310.262 59.8662C310.449 59.7617 310.586 59.7617 310.79 59.8313C312.903 60.6844 315.016 61.5724 317.146 62.3732C319.259 63.1567 321.406 63.2437 323.502 62.2514C323.57 62.2165 323.621 62.1817 323.689 62.1469C323.706 62.1469 323.74 62.1121 323.792 62.0598C316.464 56.9761 309.171 51.8923 301.827 46.7737C301.963 46.704 302.048 46.6344 302.151 46.5822C306.445 44.1621 310.739 41.7421 315.016 39.3047C316.175 38.6431 317.333 38.0163 318.628 37.6507C319.566 37.3896 320.537 37.1806 321.508 37.407C322.156 37.5637 322.769 37.8248 323.4 38.0511C324.661 38.5212 325.922 38.9913 327.183 39.4614C327.677 39.6355 328.171 39.8444 328.682 39.9489C329.449 40.1055 330.42 39.8792 331.051 39.4614C330.403 38.7301 329.756 37.9989 329.125 37.2677C327.421 35.3351 325.717 33.4026 324.03 31.4701C323.894 31.3134 323.792 31.1219 323.74 30.9304C322.786 27.5702 321.849 24.21 320.912 20.8672C320.895 20.7976 320.861 20.7106 320.827 20.6061H320.758Z" fill="#1A97D4"/>
</g>
<g clip-path="url(#clip1_0_1)">
<path d="M688.43 90.46C688.43 90.46 651.83 176.03 581.75 129.39C511.66 82.76 447.9 -52.9 334.28 23.2299" stroke="#1A97D4" stroke-width="2" stroke-miterlimit="10" stroke-dasharray="13 2"/>
</g>
</g>
<g opacity="0.2" clip-path="url(#clip2_0_1)">
<path d="M146.935 19.5059C151.754 25.2934 151.164 34.0897 145.59 39.119C140.016 44.1482 131.567 43.5066 126.748 37.7192C121.929 31.9317 122.533 23.1225 128.093 18.1061C133.653 13.0898 142.116 13.7185 146.935 19.5059ZM129.657 35.0952C133.092 39.2206 139.094 39.6526 143.057 36.0769C147.02 32.5011 147.449 26.2404 144.027 22.1299C140.604 18.0193 134.589 17.5725 130.626 21.1483C126.663 24.724 126.236 30.957 129.671 35.0824L129.657 35.0952Z" fill="#1A97D4"/>
</g>
<g opacity="0.2" clip-path="url(#clip3_0_1)">
<path d="M18.5808 74.172L29.1691 52.6097C30.1862 50.5468 28.6483 48.1714 26.4308 48.3397L3.09662 49.9891C0.863594 50.1387 -0.408346 52.7261 0.82555 54.6232L13.5379 74.5336C14.7718 76.4307 17.5637 76.235 18.5808 74.172Z" fill="#1A97D4"/>
</g>
<g opacity="0.2" clip-path="url(#clip4_0_1)">
<path d="M256.647 907.159C261.466 912.947 260.045 922.493 253.446 928.447C246.847 934.401 237.567 934.51 232.748 928.722C227.929 922.935 229.367 913.373 235.949 907.434C242.532 901.495 251.828 901.372 256.647 907.159ZM236.191 925.616C239.627 929.741 246.221 929.638 250.913 925.405C255.605 921.172 256.627 914.376 253.204 910.266C249.781 906.155 243.174 906.243 238.482 910.476C233.79 914.71 232.773 921.475 236.208 925.6L236.191 925.616Z" fill="#1A97D4"/>
</g>
<g opacity="0.2" clip-path="url(#clip5_0_1)">
<path d="M394.97 836.633L399.837 812.953C400.306 810.686 398.23 808.806 396.13 809.566L374.001 817.446C371.881 818.192 371.296 821.034 372.96 822.534L390.189 838.341C391.853 839.841 394.501 838.9 394.97 836.633Z" fill="#1A97D4"/>
</g>
<g opacity="0.2">
<g clip-path="url(#clip6_0_1)">
<path d="M101.461 891.09C101.474 889.779 101.015 888.727 99.9545 887.918C99.4393 887.522 98.9345 887.073 98.4447 886.633C97.3899 885.709 96.3351 884.786 95.3124 883.841C94.6457 883.22 94.2831 882.42 94.032 881.567C93.6739 880.376 93.5027 879.176 93.5117 877.941C93.5361 873.233 93.5605 868.525 93.5849 863.817C93.5986 863.097 93.6123 862.377 93.643 861.627C101.624 865.841 109.619 870.064 117.639 874.281C117.654 873.07 117.338 871.982 116.793 870.939C116.158 869.707 115.272 868.664 114.177 867.776C112.777 866.614 111.41 865.431 110.019 864.254C109.788 864.061 109.581 863.863 109.341 863.686C109.169 863.566 109.115 863.417 109.118 863.202C109.14 862.468 109.139 861.739 109.137 861.01C109.135 860.457 108.779 860.134 108.175 860.1C107.711 860.068 107.343 860.427 107.318 860.923C107.302 861.229 107.325 861.538 107.32 861.928C106.889 861.561 106.501 861.259 106.121 860.941C105.11 860.082 104.09 859.237 103.078 858.377C102.975 858.278 102.89 858.111 102.889 857.973C102.845 857.318 102.81 856.648 102.781 856.002C102.759 855.517 102.427 855.188 101.909 855.144C101.406 855.11 101.051 855.377 100.987 855.871C100.951 856.107 100.97 856.353 100.954 856.659C100.344 856.149 99.7786 855.666 99.2286 855.191C97.4664 853.681 95.7042 852.172 93.9185 850.669C93.7546 850.535 93.7539 850.397 93.7552 850.22C93.7818 847.284 93.8168 844.333 93.8198 841.403C93.834 839.916 93.6766 838.448 93.1435 837.038C92.8215 836.203 92.3796 835.436 91.5995 834.907C91.1727 834.602 91.0246 834.615 90.5835 834.891C89.6199 835.516 89.1284 836.471 88.7791 837.529C88.2582 839.058 88.1456 840.646 88.1405 842.257C88.1212 844.902 88.0867 847.538 88.0673 850.183C88.0614 850.298 87.9998 850.439 87.9186 850.51C86.4615 851.676 84.9808 852.848 83.5087 854.005C82.7319 854.619 81.9467 855.248 81.1549 855.853C81.0415 855.945 80.9131 856.028 80.7072 856.106C80.7256 855.9 80.7439 855.695 80.7622 855.489C80.7707 855.021 80.4704 854.671 79.9847 854.607C79.4839 854.534 79.1155 854.754 78.991 855.214C78.953 855.349 78.9452 855.502 78.9524 855.664C78.938 856.246 78.9538 856.845 78.9309 857.442C78.9251 857.557 78.8785 857.707 78.7973 857.778C77.428 858.896 76.0522 859.991 74.6764 861.085C74.6594 861.115 74.6122 861.127 74.5243 861.175C74.5335 860.845 74.5492 860.54 74.5413 860.24C74.5386 859.687 74.1911 859.349 73.594 859.339C73.1063 859.313 72.7471 859.657 72.7281 860.177C72.7059 860.912 72.7073 861.641 72.7087 862.369C72.7055 862.584 72.6373 862.702 72.4747 862.844C70.6795 864.248 68.854 865.633 67.0954 867.078C65.3604 868.516 64.2115 870.332 64.023 872.643C64.0191 872.719 64.0237 872.781 64.0197 872.858C64.0112 872.872 64.0243 872.919 64.044 872.99C72.1103 869.186 80.1596 865.412 88.2646 861.611C88.2567 861.764 88.2744 861.872 88.2685 861.987C88.2173 866.916 88.166 871.845 88.1384 876.767C88.132 878.102 88.0954 879.418 87.7645 880.723C87.5221 881.665 87.2174 882.611 86.5357 883.339C86.0763 883.821 85.5434 884.222 85.0321 884.655C83.9945 885.512 82.957 886.369 81.9194 887.226C81.5215 887.566 81.0935 887.89 80.7474 888.28C80.2283 888.866 79.9387 889.82 79.9853 890.575C80.9424 890.38 81.8994 890.185 82.8479 890.005C85.3735 889.495 87.8991 888.986 90.4162 888.491C90.6201 888.451 90.8371 888.459 91.0285 888.51C94.4156 889.364 97.7942 890.232 101.158 891.092C101.227 891.112 101.319 891.126 101.427 891.149L101.461 891.09Z" fill="#1A97D4"/>
</g>
<g clip-path="url(#clip7_0_1)">
<path d="M90.3429 904.549C47.5224 1045.82 -47.931 773.002 -125.521 846.441" stroke="#1A97D4" stroke-width="2" stroke-miterlimit="10" stroke-dasharray="13 2"/>
</g>
</g>
<g opacity="0.2" clip-path="url(#clip8_0_1)">
<path d="M10.7579 493.523C13.8597 500.194 10.7438 508.259 3.78096 511.496C-3.18186 514.733 -11.3561 511.917 -14.4578 505.245C-17.5596 498.574 -14.4259 490.501 -7.4809 487.272C-0.53589 484.043 7.65611 486.851 10.7579 493.523ZM-10.8251 503.557C-8.61404 508.312 -2.80001 510.29 2.15053 507.989C7.10108 505.687 9.32818 499.95 7.12512 495.211C4.92206 490.473 -0.89993 488.477 -5.85047 490.779C-10.801 493.081 -13.0183 498.792 -10.8073 503.548L-10.8251 503.557Z" fill="#1A97D4"/>
</g>
<g opacity="0.2" clip-path="url(#clip9_0_1)">
<path d="M35.6351 645.56L44.6453 623.225C45.5114 621.087 43.7567 618.965 41.5177 619.407L17.9462 623.936C15.6898 624.362 14.6072 627.042 16.0144 628.736L30.5414 646.544C31.9486 648.238 34.769 647.698 35.6351 645.56Z" fill="#1A97D4"/>
</g>
<g opacity="0.2" clip-path="url(#clip10_0_1)">
<path d="M402.29 377.836C409.06 374.955 417.018 378.334 420.025 385.399C423.032 392.464 419.95 400.542 413.18 403.423C406.41 406.304 398.444 402.907 395.445 395.86C392.446 388.813 395.52 380.717 402.29 377.836ZM411.611 399.737C416.437 397.683 418.604 391.937 416.467 386.913C414.329 381.89 408.668 379.476 403.859 381.522C399.051 383.569 396.865 389.322 399.003 394.345C401.141 399.369 406.777 401.772 411.603 399.719L411.611 399.737Z" fill="#1A97D4"/>
</g>
<g opacity="0.2" clip-path="url(#clip11_0_1)">
<path d="M434.253 224.919L411.43 231.931C409.244 232.599 408.744 235.307 410.513 236.781L429.041 252.369C430.809 253.866 433.548 253.026 433.943 250.859L438.26 228.284C438.655 226.117 436.439 224.251 434.253 224.919Z" fill="#1A97D4"/>
</g>
<defs>
<clipPath id="clip0_0_1">
<rect width="54" height="48" fill="white" transform="translate(277 15)"/>
</clipPath>
<clipPath id="clip1_0_1">
<rect width="354.89" height="143.8" fill="white" transform="translate(334)"/>
</clipPath>
<clipPath id="clip2_0_1">
<rect width="27.3437" height="27.1884" fill="white" transform="matrix(-0.639886 -0.76847 0.74246 -0.66989 135.497 48.2256)"/>
</clipPath>
<clipPath id="clip3_0_1">
<rect width="29.1766" height="27.8746" fill="white" transform="matrix(-0.639886 -0.76847 0.74246 -0.66989 15.6697 77.0938)"/>
</clipPath>
<clipPath id="clip4_0_1">
<rect width="27.3437" height="32.1884" fill="white" transform="matrix(-0.639886 -0.76847 0.74246 -0.66989 241.497 939.229)"/>
</clipPath>
<clipPath id="clip5_0_1">
<rect width="28.876" height="28.162" fill="white" transform="matrix(-0.817576 -0.575821 0.54498 -0.838449 392.885 840.24)"/>
</clipPath>
<clipPath id="clip6_0_1">
<rect width="54" height="48" fill="white" transform="translate(128.195 855.996) rotate(120)"/>
</clipPath>
<clipPath id="clip7_0_1">
<rect width="425.124" height="172.259" fill="white" transform="translate(-115.891 818.052) rotate(0.0365667)"/>
</clipPath>
<clipPath id="clip8_0_1">
<rect width="26.7138" height="27.8076" fill="white" transform="translate(-8.8269 517.357) rotate(-114.934)"/>
</clipPath>
<clipPath id="clip9_0_1">
<rect width="28.5044" height="28.5094" fill="white" transform="translate(32.9141 648.772) rotate(-136.81)"/>
</clipPath>
<clipPath id="clip10_0_1">
<rect width="26.7138" height="27.8076" fill="white" transform="translate(425.47 398.192) rotate(156.946)"/>
</clipPath>
<clipPath id="clip11_0_1">
<rect width="28.5841" height="28.4356" fill="white" transform="matrix(-0.0565977 0.998397 -0.99706 -0.0766198 438.445 225.025)"/>
</clipPath>
</defs>
</svg>
