<svg width="19" height="14" viewBox="0 0 19 14" fill="none" xmlns="http://www.w3.org/2000/svg">
<path d="M3.6393 6.86033L0.859297 9.65033C0.669297 9.85033 0.669297 10.1603 0.859297 10.3603L3.6393 13.1503C3.9493 13.4703 4.4893 13.2403 4.4893 12.8003V11.0003H10.4993C11.0493 11.0003 11.4993 10.5503 11.4993 10.0003C11.4993 9.45033 11.0493 9.00033 10.4993 9.00033H4.4893V7.21033C4.4893 6.76033 3.9493 6.54033 3.6393 6.86033ZM18.1493 3.65033L15.3693 0.860332C15.0593 0.540332 14.5193 0.770332 14.5193 1.21033V3.00033H8.4993C7.9493 3.00033 7.4993 3.45033 7.4993 4.00033C7.4993 4.55033 7.9493 5.00033 8.4993 5.00033H14.5093V6.79033C14.5093 7.24033 15.0493 7.46033 15.3593 7.14033L18.1393 4.35033C18.3393 4.16033 18.3393 3.84033 18.1493 3.65033Z" fill="white"/>
</svg>
