<svg width="20" height="22" viewBox="0 0 20 22" fill="none" xmlns="http://www.w3.org/2000/svg">
<path d="M16.7504 8.71029V8.00528C16.7504 4.13619 13.7264 1.00012 10.0003 1.00012C6.27418 1.00012 3.25011 4.13619 3.25011 8.00528V8.71029C3.25132 9.55187 3.01115 10.3761 2.5581 11.0853L1.45007 12.8104C0.439049 14.3854 1.21107 16.5265 2.97011 17.0245C7.56632 18.3275 12.4342 18.3275 17.0304 17.0245C18.7895 16.5265 19.5615 14.3854 18.5505 12.8114L17.4424 11.0863C16.989 10.3772 16.7485 9.55297 16.7494 8.7113L16.7504 8.71029Z" stroke="#1A97D4" stroke-width="1.5"/>
<path d="M5.5 17.9996C6.15501 19.7477 7.92205 20.9997 10.0001 20.9997C12.0781 20.9997 13.8452 19.7477 14.5002 17.9996" stroke="#1A97D4" stroke-width="1.5" stroke-linecap="round"/>
</svg>
