<svg width="54" height="48" viewBox="0 0 54 48" fill="none" xmlns="http://www.w3.org/2000/svg">
<path d="M43.7584 5.60609C42.6168 6.25027 41.9352 7.17301 41.7648 8.49619C41.6796 9.14037 41.5432 9.80196 41.4069 10.4461C41.1343 11.8215 40.8616 13.197 40.5549 14.555C40.3504 15.4429 39.8392 16.1567 39.2258 16.8009C38.3738 17.7062 37.4195 18.4548 36.346 19.0642C32.2564 21.3972 28.1668 23.7301 24.0772 26.0631C23.4467 26.4113 22.8162 26.7595 22.1516 27.1077C21.8108 18.0892 21.47 9.05332 21.1122 0C20.0557 0.591948 19.2719 1.41023 18.6414 2.40261C17.8916 3.5691 17.4315 4.85745 17.21 6.25027C16.9033 8.04353 16.5625 9.81937 16.2387 11.6126C16.1876 11.9086 16.1194 12.1872 16.0854 12.4831C16.0683 12.6921 15.9661 12.8139 15.7786 12.9184C15.1311 13.2666 14.5006 13.6322 13.8701 13.9978C13.393 14.2764 13.2908 14.7465 13.5634 15.2862C13.7679 15.704 14.2621 15.8433 14.7051 15.617C14.9778 15.4777 15.2334 15.3036 15.5742 15.1121C15.4719 15.6692 15.4038 16.1567 15.3186 16.6442C15.08 17.9499 14.8585 19.2557 14.6199 20.5615C14.5858 20.7008 14.4836 20.8575 14.3643 20.9271C13.819 21.2927 13.2567 21.6583 12.7114 22.0065C12.3025 22.2677 12.1832 22.7203 12.4047 23.1904C12.6262 23.6431 13.0352 23.8172 13.4953 23.6257C13.7168 23.5386 13.9213 23.3993 14.1939 23.2601C14.0576 24.0435 13.9213 24.7748 13.7849 25.4886C13.3589 27.7693 12.9329 30.0501 12.524 32.3482C12.4899 32.5571 12.3706 32.6268 12.2173 32.7138C9.66125 34.1589 7.0882 35.6039 4.54923 37.0664C3.25418 37.7976 2.06138 38.6681 1.10713 39.8346C0.544809 40.531 0.101768 41.2971 0.0336072 42.2372C-0.017513 42.7595 0.0676874 42.8814 0.527769 43.1251C1.55017 43.6474 2.6237 43.5952 3.71426 43.3689C5.29899 43.0555 6.73036 42.3591 8.12764 41.5582C10.4281 40.2524 12.7285 38.9641 15.0289 37.6583C15.1311 37.6061 15.2845 37.5887 15.3867 37.6235C17.1248 38.3025 18.8799 38.9989 20.618 39.6953C21.5382 40.0609 22.4754 40.4266 23.3956 40.8096C23.5319 40.8618 23.6682 40.9314 23.8386 41.0707C23.6512 41.1578 23.4637 41.2448 23.2763 41.3319C22.8673 41.5582 22.7139 41.9935 22.9014 42.4461C23.0888 42.9162 23.4637 43.1251 23.9238 43.0033C24.0601 42.9684 24.1964 42.8988 24.3328 42.8118C24.844 42.5332 25.3552 42.2198 25.8834 41.9412C25.9856 41.889 26.139 41.8542 26.2412 41.889C27.8941 42.5158 29.53 43.16 31.1658 43.8041C31.1999 43.8041 31.234 43.839 31.3192 43.8912C31.0295 44.0479 30.7569 44.1872 30.5013 44.3439C30.0241 44.6224 29.9049 45.0925 30.1945 45.6148C30.4161 46.0501 30.8932 46.1893 31.3533 45.9456C32.0008 45.5974 32.6313 45.2318 33.2618 44.8662C33.4492 44.7617 33.5855 44.7617 33.79 44.8313C35.903 45.6844 38.0159 46.5724 40.1459 47.3732C42.2589 48.1567 44.406 48.2437 46.5019 47.2514C46.5701 47.2165 46.6212 47.1817 46.6893 47.1469C46.7064 47.1469 46.7405 47.1121 46.7916 47.0598C39.4643 41.9761 32.1712 36.8923 24.8269 31.7737C24.9632 31.704 25.0484 31.6344 25.1507 31.5822C29.4448 29.1621 33.7389 26.7421 38.0159 24.3047C39.1747 23.6431 40.3334 23.0163 41.6284 22.6507C42.5656 22.3896 43.5369 22.1806 44.5082 22.407C45.1557 22.5637 45.7692 22.8248 46.3997 23.0511C47.6606 23.5212 48.9216 23.9913 50.1826 24.4614C50.6767 24.6355 51.1709 24.8444 51.6821 24.9489C52.4489 25.1055 53.4202 24.8792 54.0506 24.4614C53.4031 23.7301 52.7556 22.9989 52.1251 22.2677C50.4211 20.3351 48.7171 18.4026 47.0301 16.4701C46.8938 16.3134 46.7916 16.1219 46.7405 15.9304C45.7862 12.5702 44.849 9.21001 43.9118 5.86725C43.8948 5.79761 43.8607 5.71055 43.8266 5.60609H43.7584Z" fill="#1A97D4"/>
</svg>
