<svg width="14" height="16" viewBox="0 0 14 16" fill="none" xmlns="http://www.w3.org/2000/svg">
<path d="M8.66797 13.0322L8.66797 10.0374L13.4336 7.30301C13.5638 7.22489 13.668 7.09468 13.668 6.93843L13.668 5.24572C13.668 4.95926 13.3815 4.75093 13.1211 4.82905L8.66797 6.10509L8.66797 3.44884L10.1523 2.30301C10.2565 2.22489 10.3346 2.12072 10.3346 1.99051L10.3346 0.948844C10.3346 0.662385 10.0742 0.454052 9.8138 0.532177L7.0013 1.36551L4.16276 0.532177C3.90235 0.454052 3.66797 0.662385 3.66797 0.948843L3.66797 1.99051C3.66797 2.12072 3.72005 2.22489 3.82422 2.30301L5.33464 3.44884L5.33464 6.10509L0.85547 4.82905C0.595054 4.75093 0.334637 4.95926 0.334637 5.24572L0.334637 6.93843C0.334637 7.09468 0.412762 7.22488 0.54297 7.30301L5.33464 10.0374L5.33464 13.0322C5.33464 13.9436 6.0638 15.5322 7.0013 15.5322C7.91276 15.5322 8.66797 13.9436 8.66797 13.0322Z" fill="#1A97D4"/>
</svg>
