<svg width="19" height="16" viewBox="0 0 19 16" fill="none" xmlns="http://www.w3.org/2000/svg">
<path d="M15.5394 5.99903L11.9456 5.99902L8.66439 0.280275C8.57064 0.124025 8.41439 -0.000975182 8.22689 -0.000975215L6.19564 -0.00097557C5.85189 -0.00097563 5.60189 0.342774 5.69564 0.655274L7.22689 5.99902L4.03939 5.99902L2.66439 4.21777C2.57064 4.09277 2.44564 3.99902 2.28939 3.99902L1.03939 3.99902C0.695643 3.99902 0.445643 4.31152 0.539393 4.62402L1.53939 7.99902L0.539392 11.4053C0.445642 11.7178 0.695642 11.999 1.03939 11.999L2.28939 11.999C2.44564 11.999 2.57064 11.9365 2.66439 11.8115L4.03939 9.99902L7.22689 9.99902L5.69564 15.374C5.60189 15.6865 5.85189 15.999 6.19564 15.999L8.22689 15.999C8.41439 15.999 8.57064 15.9053 8.66439 15.749L11.9456 9.99902L15.5394 9.99903C16.6331 9.99903 18.5394 9.12403 18.5394 7.99903C18.5394 6.90528 16.6331 5.99903 15.5394 5.99903Z" fill="#1A97D4"/>
</svg>
