<svg width="430" height="140" viewBox="0 0 430 140" fill="none" xmlns="http://www.w3.org/2000/svg">
<g opacity="0.2" clip-path="url(#clip0_0_1)">
<path d="M389.439 18.0885C392.436 18.0885 394.879 15.653 394.879 12.6489C394.879 9.64483 392.436 7.20929 389.439 7.20929C386.443 7.20929 384 9.65251 384 12.6489C384 15.6453 386.443 18.0885 389.439 18.0885ZM389.439 8.77664C391.575 8.77664 393.304 10.513 393.304 12.6489C393.304 14.7848 391.567 16.5212 389.439 16.5212C387.311 16.5212 385.575 14.7848 385.575 12.6489C385.575 10.513 387.303 8.78432 389.439 8.78432V8.77664Z" fill="white"/>
</g>
<g opacity="0.2" clip-path="url(#clip1_0_1)">
<path d="M426.182 92.793L420.48 100.359C419.935 101.084 418.825 100.927 418.49 100.086L414.917 91.2566C414.572 90.4131 415.256 89.5047 416.143 89.6323L425.412 90.884C426.299 91.0116 426.727 92.0677 426.182 92.793Z" fill="white"/>
</g>
<g opacity="0.2" clip-path="url(#clip2_0_1)">
<path d="M277.287 121.152C279.25 118.888 279.009 115.447 276.739 113.479C274.469 111.512 271.029 111.763 269.066 114.027C267.104 116.291 267.35 119.737 269.614 121.7C271.878 123.663 275.324 123.417 277.287 121.152ZM270.25 115.053C271.649 113.439 274.094 113.27 275.708 114.669C277.322 116.068 277.497 118.518 276.103 120.126C274.709 121.734 272.259 121.909 270.645 120.51C269.031 119.111 268.857 116.672 270.256 115.058L270.25 115.053Z" fill="white"/>
</g>
<g opacity="0.2" clip-path="url(#clip3_0_1)">
<path d="M198.537 23.9219L194.987 32.7057C194.648 33.5473 193.536 33.6827 192.994 32.9572L187.257 25.3536C186.706 24.6281 187.132 23.5737 188.022 23.4673L197.299 22.2774C198.189 22.171 198.876 23.0803 198.537 23.9219Z" fill="white"/>
</g>
<g opacity="0.2" clip-path="url(#clip4_0_1)">
<path d="M15.2872 129.337L19.5993 137.773C20.0135 138.58 19.3872 139.509 18.4842 139.443L8.98126 138.798C8.07186 138.74 7.55386 137.727 8.05637 136.985L13.2335 129.196C13.736 128.453 14.873 128.53 15.2872 129.337Z" fill="white"/>
</g>
<g opacity="0.2">
<g clip-path="url(#clip5_0_1)">
<path d="M361.759 101.194C360.618 100.55 359.936 99.6271 359.766 98.3039C359.681 97.6598 359.544 96.9982 359.408 96.354C359.135 94.9786 358.863 93.6032 358.556 92.2452C358.351 91.3573 357.84 90.6434 357.227 89.9993C356.375 89.0939 355.421 88.3453 354.347 87.7359C350.257 85.403 346.168 83.07 342.078 80.737C341.448 80.3888 340.817 80.0406 340.153 79.6924C339.812 88.7109 339.471 97.7468 339.113 106.8C338.057 106.208 337.273 105.39 336.642 104.398C335.893 103.231 335.433 101.943 335.211 100.55C334.904 98.7566 334.563 96.9808 334.24 95.1875C334.189 94.8915 334.12 94.613 334.086 94.317C334.069 94.1081 333.967 93.9862 333.78 93.8818C333.132 93.5335 332.502 93.1679 331.871 92.8023C331.394 92.5238 331.292 92.0537 331.564 91.514C331.769 91.0961 332.263 90.9568 332.706 91.1832C332.979 91.3224 333.234 91.4965 333.575 91.6881C333.473 91.1309 333.405 90.6434 333.32 90.156C333.081 88.8502 332.859 87.5444 332.621 86.2387C332.587 86.0994 332.485 85.9427 332.365 85.873C331.82 85.5074 331.258 85.1418 330.712 84.7936C330.303 84.5325 330.184 84.0798 330.406 83.6097C330.627 83.1571 331.036 82.9829 331.496 83.1745C331.718 83.2615 331.922 83.4008 332.195 83.5401C332.059 82.7566 331.922 82.0254 331.786 81.3116C331.36 79.0308 330.934 76.7501 330.525 74.4519C330.491 74.243 330.372 74.1734 330.218 74.0863C327.662 72.6413 325.089 71.1962 322.55 69.7338C321.255 69.0025 320.062 68.132 319.108 66.9655C318.546 66.2691 318.103 65.5031 318.035 64.5629C317.983 64.0406 318.069 63.9187 318.529 63.675C319.551 63.1527 320.625 63.2049 321.715 63.4313C323.3 63.7446 324.731 64.4411 326.129 65.2419C328.429 66.5477 330.729 67.8361 333.03 69.1418C333.132 69.194 333.285 69.2115 333.388 69.1766C335.126 68.4976 336.881 67.8012 338.619 67.1048C339.539 66.7392 340.476 66.3736 341.397 65.9906C341.533 65.9383 341.669 65.8687 341.84 65.7294C341.652 65.6424 341.465 65.5553 341.277 65.4683C340.868 65.2419 340.715 64.8067 340.902 64.354C341.09 63.8839 341.465 63.675 341.925 63.7969C342.061 63.8317 342.197 63.9013 342.334 63.9884C342.845 64.267 343.356 64.5803 343.884 64.8589C343.987 64.9111 344.14 64.946 344.242 64.9111C345.895 64.2844 347.531 63.6402 349.167 62.996C349.201 62.996 349.235 62.9612 349.32 62.909C349.03 62.7523 348.758 62.613 348.502 62.4563C348.025 62.1777 347.906 61.7076 348.196 61.1853C348.417 60.7501 348.894 60.6108 349.354 60.8545C350.002 61.2028 350.632 61.5684 351.263 61.934C351.45 62.0384 351.586 62.0384 351.791 61.9688C353.904 61.1157 356.017 60.2278 358.147 59.4269C360.26 58.6435 362.407 58.5564 364.503 59.5488C364.571 59.5836 364.622 59.6184 364.69 59.6532C364.707 59.6532 364.741 59.6881 364.793 59.7403C357.465 64.8241 350.172 69.9079 342.828 75.0265C342.964 75.0961 343.049 75.1658 343.152 75.218C347.446 77.638 351.74 80.058 356.017 82.4955C357.176 83.1571 358.334 83.7838 359.629 84.1494C360.567 84.4106 361.538 84.6195 362.509 84.3932C363.157 84.2365 363.77 83.9753 364.401 83.749C365.662 83.2789 366.923 82.8088 368.184 82.3388C368.678 82.1647 369.172 81.9557 369.683 81.8513C370.45 81.6946 371.421 81.9209 372.052 82.3388C371.404 83.07 370.757 83.8012 370.126 84.5325C368.422 86.465 366.718 88.3975 365.031 90.3301C364.895 90.4868 364.793 90.6783 364.741 90.8698C363.787 94.23 362.85 97.5901 361.913 100.933C361.896 101.003 361.862 101.09 361.828 101.194H361.759Z" fill="white"/>
</g>
<g clip-path="url(#clip6_0_1)">
<path d="M729.429 31.3402C729.429 31.3402 692.829 -54.2298 622.749 -7.58981C552.659 39.0402 488.899 174.7 375.279 98.5702" stroke="white" stroke-width="2" stroke-miterlimit="10" stroke-dasharray="13 2"/>
</g>
</g>
<g opacity="0.2">
<g clip-path="url(#clip7_0_1)">
<path d="M18.6729 19.1697C19.3005 18.7989 19.9343 18.7271 20.6187 19.0128C20.9525 19.1508 21.3089 19.269 21.6569 19.3824C22.3949 19.6334 23.1329 19.8844 23.872 20.1141C24.3563 20.2624 24.8421 20.2146 25.3228 20.0982C25.9956 19.9395 26.6214 19.688 27.2133 19.3403C29.4737 18.0189 31.7341 16.6976 33.9946 15.3763C34.3375 15.1694 34.6805 14.9625 35.0329 14.7392C30.7859 12.0683 26.5305 9.3926 22.2715 6.70383C22.8502 6.3595 23.4622 6.2094 24.1153 6.18156C24.8853 6.14467 25.6335 6.28117 26.3657 6.56162C27.3143 6.91233 28.264 7.24178 29.2174 7.58428C29.3741 7.64193 29.5272 7.68653 29.6791 7.75238C29.7844 7.80224 29.8715 7.78687 29.974 7.72563C30.3217 7.51053 30.673 7.30848 31.0244 7.10643C31.2911 6.95405 31.5459 7.03546 31.7299 7.3168C31.8742 7.53143 31.8038 7.80816 31.5717 7.95864C31.4288 8.05125 31.2739 8.12597 31.0869 8.23688C31.3836 8.3425 31.6372 8.44517 31.8956 8.53963C32.5906 8.78767 33.2808 9.04392 33.9758 9.29196C34.0523 9.31425 34.1562 9.30856 34.2229 9.27047C34.5506 9.10946 34.883 8.94023 35.2022 8.77438C35.4417 8.64999 35.6928 8.71836 35.8575 8.95572C36.0138 9.18823 35.9839 9.43361 35.7638 9.60197C35.6603 9.68447 35.5363 9.74425 35.3935 9.83685C35.8086 9.98896 36.1985 10.1266 36.5801 10.2593C37.7965 10.6881 39.013 11.1168 40.2332 11.5586C40.3432 11.6003 40.4099 11.5622 40.4945 11.5125C41.9009 10.6831 43.3122 9.84539 44.7223 9.02898C45.4345 8.60846 46.1852 8.2759 47.0122 8.14052C47.5038 8.06324 47.9958 8.06278 48.4674 8.29127C48.7331 8.41182 48.7681 8.48673 48.7575 8.77608C48.7246 9.41371 48.4009 9.91626 47.9887 10.3786C47.3971 11.0548 46.6638 11.5507 45.8897 12.0011C44.6214 12.7461 43.3614 13.496 42.0931 14.2411C42.0395 14.2758 41.9884 14.3448 41.9768 14.4038C41.8203 15.4296 41.6675 16.4686 41.5195 17.4993C41.4396 18.0441 41.355 18.5972 41.2835 19.1468C41.2708 19.227 41.2664 19.312 41.2861 19.4328C41.3801 19.3667 41.4741 19.3006 41.5682 19.2346C41.7908 19.1005 42.043 19.1476 42.2088 19.3637C42.383 19.5847 42.3794 19.8233 42.1927 20.011C42.1381 20.067 42.0666 20.1133 41.9868 20.1548C41.7106 20.3236 41.4175 20.4827 41.1365 20.6597C41.0829 20.6944 41.0235 20.7586 41.0119 20.8175C40.854 21.7878 40.7092 22.7548 40.5644 23.7218C40.5549 23.7382 40.5622 23.7643 40.5637 23.8198C40.7197 23.7239 40.8625 23.6313 41.0091 23.5517C41.2758 23.3993 41.5353 23.4725 41.7062 23.7572C41.8542 23.9849 41.7885 24.2534 41.5433 24.4073C41.1956 24.6224 40.8442 24.8244 40.4929 25.0265C40.3905 25.0877 40.3525 25.1534 40.3292 25.2712C40.1523 26.5261 39.9922 27.7906 39.7855 29.0391C39.5751 30.2746 39.0199 31.333 37.9593 32.0666C37.9236 32.0898 37.8926 32.1047 37.8569 32.1279C37.8522 32.1361 37.8259 32.1428 37.7866 32.1529C37.3766 27.2107 36.9573 22.2848 36.5353 17.3247C36.4639 17.371 36.4067 17.3927 36.3531 17.4274C33.9939 18.823 31.6347 20.2186 29.2719 21.6012C28.6311 21.9754 28.0072 22.3593 27.471 22.8814C27.0847 23.2603 26.714 23.67 26.5528 24.2008C26.4482 24.5562 26.4034 24.9242 26.337 25.2908C26.2126 26.0288 26.0883 26.7669 25.964 27.5049C25.9104 27.7913 25.8735 28.0874 25.7817 28.3626C25.6439 28.7755 25.2648 29.1804 24.8883 29.3679C24.7163 28.8528 24.5444 28.3377 24.3677 27.8308C23.9111 26.4729 23.4546 25.115 22.9933 23.7653C22.9558 23.6561 22.892 23.5536 22.8141 23.4757C21.4617 22.0821 20.1046 20.6967 18.756 19.3162C18.7272 19.2886 18.6947 19.248 18.6539 19.2026L18.6729 19.1697Z" fill="white"/>
</g>
<g clip-path="url(#clip8_0_1)">
<path d="M-49.9398 215.677C-49.9398 215.677 1.43418 221.833 -1.53171 175.115C-4.49 128.395 -52.0704 59.9772 16.1768 26.4123" stroke="white" stroke-width="2" stroke-miterlimit="10" stroke-dasharray="13 2"/>
</g>
</g>
<defs>
<clipPath id="clip0_0_1">
<rect width="10.8792" height="10.8792" fill="white" transform="matrix(-1 0 0 1 394.879 7.20929)"/>
</clipPath>
<clipPath id="clip1_0_1">
<rect width="11.6085" height="11.1538" fill="white" transform="matrix(-0.965926 -0.258819 -0.258819 0.965926 426.691 91.2269)"/>
</clipPath>
<clipPath id="clip2_0_1">
<rect width="10.8792" height="10.8792" fill="white" transform="matrix(-0.654974 0.755651 0.755651 0.654974 272.629 109.916)"/>
</clipPath>
<clipPath id="clip3_0_1">
<rect width="11.6085" height="11.1538" fill="white" transform="matrix(-1 0 0 1 198.625 22.2776)"/>
</clipPath>
<clipPath id="clip4_0_1">
<rect width="11.6085" height="11.1538" fill="white" transform="matrix(-0.654974 0.755651 0.755651 0.654974 14.1016 128.194)"/>
</clipPath>
<clipPath id="clip5_0_1">
<rect width="54" height="48" fill="white" transform="matrix(1 0 0 -1 318 106.8)"/>
</clipPath>
<clipPath id="clip6_0_1">
<rect width="354.89" height="143.8" fill="white" transform="matrix(1 0 0 -1 375 121.8)"/>
</clipPath>
<clipPath id="clip7_0_1">
<rect width="30.033" height="26.6837" fill="white" transform="matrix(-0.5 0.866025 0.866025 0.5 28.1426 -3.46484)"/>
</clipPath>
<clipPath id="clip8_0_1">
<rect width="197.378" height="79.9398" fill="white" transform="matrix(-0.5 0.866025 0.866025 0.5 5.07031 19.8203)"/>
</clipPath>
</defs>
</svg>
