<svg width="13" height="13" viewBox="0 0 13 13" fill="none" xmlns="http://www.w3.org/2000/svg">
<path d="M10.1993 8.38073C10.0374 8.5376 9.96305 8.76448 9.99992 8.98698L10.5555 12.062C10.6024 12.3226 10.4924 12.5864 10.2743 12.737C10.0605 12.8932 9.77617 12.912 9.54305 12.787L6.77492 11.3432C6.67867 11.292 6.5718 11.2645 6.46242 11.2614H6.29305C6.2343 11.2701 6.1768 11.2889 6.1243 11.3176L3.35555 12.7682C3.21867 12.837 3.06367 12.8614 2.9118 12.837C2.5418 12.767 2.29492 12.4145 2.35555 12.0426L2.9118 8.9676C2.94867 8.74323 2.8743 8.5151 2.71242 8.35573L0.455547 6.16823C0.266797 5.9851 0.201172 5.7101 0.287422 5.46198C0.371172 5.21448 0.584922 5.03385 0.843047 4.99323L3.9493 4.5426C4.18555 4.51823 4.39305 4.37448 4.4993 4.16198L5.86805 1.35573C5.90055 1.29323 5.94242 1.23573 5.99305 1.18698L6.0493 1.14323C6.07867 1.11073 6.11242 1.08385 6.14992 1.06198L6.21805 1.03698L6.3243 0.993225H6.58742C6.82242 1.0176 7.0293 1.15823 7.13742 1.36823L8.5243 4.16198C8.6243 4.36635 8.81867 4.50823 9.04305 4.5426L12.1493 4.99323C12.4118 5.03073 12.6312 5.21198 12.718 5.46198C12.7999 5.7126 12.7293 5.9876 12.5368 6.16823L10.1993 8.38073Z" fill="url(#paint0_linear_1_2499)"/>
<defs>
<linearGradient id="paint0_linear_1_2499" x1="0.25" y1="0.993225" x2="12.1102" y2="13.4784" gradientUnits="userSpaceOnUse">
<stop stop-color="#F9DD7D"/>
<stop offset="1" stop-color="#FF9900"/>
</linearGradient>
</defs>
</svg>
