<svg width="124" height="102" viewBox="0 0 124 102" fill="none" xmlns="http://www.w3.org/2000/svg">
<rect opacity="0.3" x="39.2058" y="69.1316" width="84.016" height="5.82512" rx="2.91256" fill="#A1ADB2"/>
<rect opacity="0.3" x="39.2058" y="79.7498" width="61.8772" height="5.82512" rx="2.91256" fill="#A1ADB2"/>
<rect opacity="0.15" x="39.2058" y="95.677" width="24.026" height="5.82512" rx="2.91256" fill="#A1ADB2"/>
<ellipse cx="13.909" cy="78.2994" rx="13.6364" ry="13.592" fill="#A1ADB2"/>
<path d="M11.7221 83.3427C11.9816 83.6022 12.3207 83.7316 12.6605 83.7316C13.0003 83.7316 13.3394 83.6022 13.5989 83.3427L20.2354 76.7062C20.7537 76.1879 20.7537 75.3477 20.2354 74.8294C19.7171 74.3111 18.8769 74.3111 18.3586 74.8294L12.6605 80.5269L9.61697 77.484C9.09866 76.9657 8.25848 76.9657 7.74017 77.484C7.22186 78.0023 7.22186 78.8425 7.74017 79.3608L11.7221 83.3427Z" fill="white"/>
<rect opacity="0.3" x="39.2058" y="4.53973" width="84.016" height="5.82513" rx="2.91256" fill="#A1ADB2"/>
<rect opacity="0.3" x="39.2058" y="15.1579" width="61.8772" height="5.82513" rx="2.91256" fill="#A1ADB2"/>
<rect opacity="0.15" x="39.2058" y="31.0851" width="24.026" height="5.82512" rx="2.91256" fill="#A1ADB2"/>
<ellipse cx="13.909" cy="13.7075" rx="13.6364" ry="13.592" fill="#A1ADB2"/>
<path d="M11.7221 18.7508C11.9816 19.0103 12.3207 19.1397 12.6605 19.1397C13.0003 19.1397 13.3394 19.0103 13.5989 18.7508L20.2354 12.1144C20.7537 11.596 20.7537 10.7559 20.2354 10.2375C19.7171 9.71924 18.8769 9.71924 18.3586 10.2375L12.6605 15.935L9.61697 12.8921C9.09866 12.3738 8.25848 12.3738 7.74017 12.8921C7.22186 13.4105 7.22186 14.2506 7.74017 14.7689L11.7221 18.7508Z" fill="white"/>
</svg>
